<svg width="120" height="120" viewBox="0 0 120 120" fill="none" xmlns="http://www.w3.org/2000/svg">
<path d="M119.517 67.5464C115.349 100.417 85.3235 123.685 52.4528 119.517C52.3029 119.498 52.1532 119.478 52.0038 119.458C48.5315 118.992 47.1181 114.965 49.2376 112.175C51.5416 109.143 55.8249 108.574 59.2674 110.203C62.7572 111.855 66.5636 112.991 70.6018 113.503C91.146 116.108 109.912 101.565 112.517 81.0214C115.122 60.4775 100.579 41.7116 80.035 39.1068C59.4908 36.5019 40.7247 51.0444 38.1198 71.5884C37.1334 79.3681 38.606 86.8929 41.9323 93.3816C43.536 96.5098 44.1308 102.951 42.0041 105.75C37.43 111.77 28.9711 112.2 23.2559 107.25C6.75749 93.75 -2.24283 73.9408 0.481664 52.4536C4.64949 19.5832 34.6752 -3.68482 67.5459 0.482967C100.417 4.65076 123.685 34.6761 119.517 67.5464Z" fill="white"/>
</svg>
